<svg xmlns="http://www.w3.org/2000/svg" viewBox="0 0 1500 500" width="1500" height="500">
  <defs>
    <!-- Background gradient: dark, slight green tint at bottom -->
    <linearGradient id="bgGrad" x1="0%" y1="0%" x2="0%" y2="100%">
      <stop offset="0%" stop-color="#141414"/>
      <stop offset="100%" stop-color="#1a2a14"/>
    </linearGradient>

    <!-- Leaf gradient matching logo -->
    <linearGradient id="leafGrad" x1="0%" y1="100%" x2="100%" y2="0%">
      <stop offset="0%" stop-color="#3a7a1a"/>
      <stop offset="100%" stop-color="#5cb83a"/>
    </linearGradient>

    <!-- Soil brown for ground lines -->
    <!-- Blue glow for data elements -->
    <filter id="dataGlow" x="-50%" y="-50%" width="200%" height="200%">
      <feGaussianBlur in="SourceGraphic" stdDeviation="3" result="blur"/>
      <feMerge><feMergeNode in="blur"/><feMergeNode in="SourceGraphic"/></feMerge>
    </filter>
    <filter id="softGlow" x="-30%" y="-30%" width="160%" height="160%">
      <feGaussianBlur in="SourceGraphic" stdDeviation="6" result="blur"/>
      <feMerge><feMergeNode in="blur"/><feMergeNode in="SourceGraphic"/></feMerge>
    </filter>
    <filter id="bigGlow" x="-50%" y="-50%" width="200%" height="200%">
      <feGaussianBlur in="SourceGraphic" stdDeviation="12" result="blur"/>
      <feMerge><feMergeNode in="blur"/><feMergeNode in="SourceGraphic"/></feMerge>
    </filter>
    <filter id="leafShadow">
      <feDropShadow dx="0" dy="3" stdDeviation="4" flood-color="#1a3a0a" flood-opacity="0.5"/>
    </filter>

    <!-- Subtle noise texture overlay -->
    <filter id="grain">
      <feTurbulence type="fractalNoise" baseFrequency="0.65" numOctaves="3" stitchTiles="stitch"/>
      <feColorMatrix type="saturate" values="0"/>
      <feBlend in="SourceGraphic" mode="multiply"/>
    </filter>
  </defs>

  <!-- ===== BACKGROUND ===== -->
  <rect width="1500" height="500" fill="url(#bgGrad)"/>
  <!-- Very subtle grain -->
  <rect width="1500" height="500" fill="url(#bgGrad)" filter="url(#grain)" opacity="0.04"/>

  <!-- ===== FIELD GRID — perspective rows of soil, like looking down at a farm ===== -->
  <!-- These are horizontal "row" lines that get slightly closer together toward the top (subtle perspective) -->
  <!-- Bottom rows (closer, more spaced) -->
  <line x1="0"   y1="480" x2="1500" y2="480" stroke="#6B4423" stroke-width="1.2" opacity="0.22"/>
  <line x1="0"   y1="455" x2="1500" y2="455" stroke="#6B4423" stroke-width="1.1" opacity="0.2"/>
  <line x1="0"   y1="432" x2="1500" y2="432" stroke="#6B4423" stroke-width="1"   opacity="0.18"/>
  <line x1="0"   y1="411" x2="1500" y2="411" stroke="#6B4423" stroke-width="0.9" opacity="0.17"/>
  <line x1="0"   y1="392" x2="1500" y2="392" stroke="#6B4423" stroke-width="0.9" opacity="0.15"/>
  <line x1="0"   y1="375" x2="1500" y2="375" stroke="#6B4423" stroke-width="0.8" opacity="0.14"/>
  <line x1="0"   y1="360" x2="1500" y2="360" stroke="#6B4423" stroke-width="0.8" opacity="0.13"/>
  <line x1="0"   y1="346" x2="1500" y2="346" stroke="#6B4423" stroke-width="0.7" opacity="0.12"/>
  <line x1="0"   y1="334" x2="1500" y2="334" stroke="#6B4423" stroke-width="0.7" opacity="0.11"/>
  <line x1="0"   y1="323" x2="1500" y2="323" stroke="#6B4423" stroke-width="0.6" opacity="0.1"/>
  <line x1="0"   y1="313" x2="1500" y2="313" stroke="#6B4423" stroke-width="0.6" opacity="0.09"/>
  <line x1="0"   y1="304" x2="1500" y2="304" stroke="#6B4423" stroke-width="0.5" opacity="0.08"/>
  <line x1="0"   y1="296" x2="1500" y2="296" stroke="#6B4423" stroke-width="0.5" opacity="0.07"/>
  <line x1="0"   y1="289" x2="1500" y2="289" stroke="#6B4423" stroke-width="0.5" opacity="0.06"/>
  <line x1="0"   y1="283" x2="1500" y2="283" stroke="#6B4423" stroke-width="0.4" opacity="0.05"/>

  <!-- ===== CROP PLANTS — small green dots arranged in grid rows along the soil lines ===== -->
  <!-- Row at y=455 -->
  <circle cx="60"  cy="455" r="2.8" fill="#3a7a1a" opacity="0.5"/>
  <circle cx="120" cy="455" r="2.5" fill="#4a8a2a" opacity="0.45"/>
  <circle cx="180" cy="455" r="3"   fill="#3a7a1a" opacity="0.5"/>
  <circle cx="240" cy="455" r="2.6" fill="#5cb83a" opacity="0.4"/>
  <circle cx="300" cy="455" r="2.8" fill="#3a7a1a" opacity="0.5"/>
  <circle cx="360" cy="455" r="2.4" fill="#4a8a2a" opacity="0.42"/>
  <circle cx="420" cy="455" r="2.9" fill="#3a7a1a" opacity="0.48"/>
  <circle cx="480" cy="455" r="2.5" fill="#5cb83a" opacity="0.4"/>
  <circle cx="540" cy="455" r="2.7" fill="#3a7a1a" opacity="0.5"/>
  <circle cx="600" cy="455" r="2.8" fill="#4a8a2a" opacity="0.45"/>
  <circle cx="660" cy="455" r="2.5" fill="#3a7a1a" opacity="0.48"/>
  <circle cx="720" cy="455" r="3"   fill="#5cb83a" opacity="0.42"/>
  <circle cx="780" cy="455" r="2.6" fill="#3a7a1a" opacity="0.5"/>
  <circle cx="840" cy="455" r="2.8" fill="#4a8a2a" opacity="0.45"/>
  <circle cx="900" cy="455" r="2.5" fill="#3a7a1a" opacity="0.48"/>
  <circle cx="960" cy="455" r="2.7" fill="#5cb83a" opacity="0.4"/>
  <circle cx="1020" cy="455" r="2.9" fill="#3a7a1a" opacity="0.5"/>
  <circle cx="1080" cy="455" r="2.5" fill="#4a8a2a" opacity="0.44"/>
  <circle cx="1140" cy="455" r="2.8" fill="#3a7a1a" opacity="0.48"/>
  <circle cx="1200" cy="455" r="2.6" fill="#5cb83a" opacity="0.42"/>
  <circle cx="1260" cy="455" r="2.7" fill="#3a7a1a" opacity="0.5"/>
  <circle cx="1320" cy="455" r="2.4" fill="#4a8a2a" opacity="0.45"/>
  <circle cx="1380" cy="455" r="2.8" fill="#3a7a1a" opacity="0.48"/>
  <circle cx="1440" cy="455" r="2.5" fill="#5cb83a" opacity="0.4"/>

  <!-- Row at y=432 -->
  <circle cx="90"  cy="432" r="2.4" fill="#3a7a1a" opacity="0.42"/>
  <circle cx="150" cy="432" r="2.6" fill="#4a8a2a" opacity="0.38"/>
  <circle cx="210" cy="432" r="2.3" fill="#3a7a1a" opacity="0.4"/>
  <circle cx="270" cy="432" r="2.5" fill="#5cb83a" opacity="0.35"/>
  <circle cx="330" cy="432" r="2.4" fill="#3a7a1a" opacity="0.42"/>
  <circle cx="390" cy="432" r="2.2" fill="#4a8a2a" opacity="0.38"/>
  <circle cx="450" cy="432" r="2.5" fill="#3a7a1a" opacity="0.4"/>
  <circle cx="510" cy="432" r="2.3" fill="#5cb83a" opacity="0.35"/>
  <circle cx="570" cy="432" r="2.4" fill="#3a7a1a" opacity="0.42"/>
  <circle cx="630" cy="432" r="2.6" fill="#4a8a2a" opacity="0.38"/>
  <circle cx="690" cy="432" r="2.3" fill="#3a7a1a" opacity="0.4"/>
  <circle cx="750" cy="432" r="2.5" fill="#5cb83a" opacity="0.36"/>
  <circle cx="810" cy="432" r="2.4" fill="#3a7a1a" opacity="0.42"/>
  <circle cx="870" cy="432" r="2.2" fill="#4a8a2a" opacity="0.38"/>
  <circle cx="930" cy="432" r="2.5" fill="#3a7a1a" opacity="0.4"/>
  <circle cx="990" cy="432" r="2.3" fill="#5cb83a" opacity="0.35"/>
  <circle cx="1050" cy="432" r="2.4" fill="#3a7a1a" opacity="0.42"/>
  <circle cx="1110" cy="432" r="2.6" fill="#4a8a2a" opacity="0.38"/>
  <circle cx="1170" cy="432" r="2.3" fill="#3a7a1a" opacity="0.4"/>
  <circle cx="1230" cy="432" r="2.5" fill="#5cb83a" opacity="0.36"/>
  <circle cx="1290" cy="432" r="2.4" fill="#3a7a1a" opacity="0.42"/>
  <circle cx="1350" cy="432" r="2.2" fill="#4a8a2a" opacity="0.38"/>
  <circle cx="1410" cy="432" r="2.5" fill="#3a7a1a" opacity="0.4"/>

  <!-- Row at y=411 -->
  <circle cx="60"  cy="411" r="2"   fill="#3a7a1a" opacity="0.35"/>
  <circle cx="130" cy="411" r="2.2" fill="#4a8a2a" opacity="0.32"/>
  <circle cx="200" cy="411" r="2"   fill="#3a7a1a" opacity="0.34"/>
  <circle cx="270" cy="411" r="2.1" fill="#5cb83a" opacity="0.3"/>
  <circle cx="340" cy="411" r="2"   fill="#3a7a1a" opacity="0.35"/>
  <circle cx="410" cy="411" r="2.2" fill="#4a8a2a" opacity="0.32"/>
  <circle cx="480" cy="411" r="2"   fill="#3a7a1a" opacity="0.34"/>
  <circle cx="550" cy="411" r="2.1" fill="#5cb83a" opacity="0.3"/>
  <circle cx="620" cy="411" r="2"   fill="#3a7a1a" opacity="0.35"/>
  <circle cx="690" cy="411" r="2.2" fill="#4a8a2a" opacity="0.32"/>
  <circle cx="760" cy="411" r="2"   fill="#3a7a1a" opacity="0.34"/>
  <circle cx="830" cy="411" r="2.1" fill="#5cb83a" opacity="0.3"/>
  <circle cx="900" cy="411" r="2"   fill="#3a7a1a" opacity="0.35"/>
  <circle cx="970" cy="411" r="2.2" fill="#4a8a2a" opacity="0.32"/>
  <circle cx="1040" cy="411" r="2"  fill="#3a7a1a" opacity="0.34"/>
  <circle cx="1110" cy="411" r="2.1" fill="#5cb83a" opacity="0.3"/>
  <circle cx="1180" cy="411" r="2"  fill="#3a7a1a" opacity="0.35"/>
  <circle cx="1250" cy="411" r="2.2" fill="#4a8a2a" opacity="0.32"/>
  <circle cx="1320" cy="411" r="2"  fill="#3a7a1a" opacity="0.34"/>
  <circle cx="1390" cy="411" r="2.1" fill="#5cb83a" opacity="0.3"/>

  <!-- Row at y=392 (smaller, fading) -->
  <circle cx="100" cy="392" r="1.7" fill="#3a7a1a" opacity="0.28"/>
  <circle cx="180" cy="392" r="1.8" fill="#4a8a2a" opacity="0.25"/>
  <circle cx="260" cy="392" r="1.7" fill="#3a7a1a" opacity="0.28"/>
  <circle cx="340" cy="392" r="1.6" fill="#5cb83a" opacity="0.24"/>
  <circle cx="420" cy="392" r="1.7" fill="#3a7a1a" opacity="0.28"/>
  <circle cx="500" cy="392" r="1.8" fill="#4a8a2a" opacity="0.25"/>
  <circle cx="580" cy="392" r="1.7" fill="#3a7a1a" opacity="0.28"/>
  <circle cx="660" cy="392" r="1.6" fill="#5cb83a" opacity="0.24"/>
  <circle cx="740" cy="392" r="1.7" fill="#3a7a1a" opacity="0.28"/>
  <circle cx="820" cy="392" r="1.8" fill="#4a8a2a" opacity="0.25"/>
  <circle cx="900" cy="392" r="1.7" fill="#3a7a1a" opacity="0.28"/>
  <circle cx="980" cy="392" r="1.6" fill="#5cb83a" opacity="0.24"/>
  <circle cx="1060" cy="392" r="1.7" fill="#3a7a1a" opacity="0.28"/>
  <circle cx="1140" cy="392" r="1.8" fill="#4a8a2a" opacity="0.25"/>
  <circle cx="1220" cy="392" r="1.7" fill="#3a7a1a" opacity="0.28"/>
  <circle cx="1300" cy="392" r="1.6" fill="#5cb83a" opacity="0.24"/>
  <circle cx="1380" cy="392" r="1.7" fill="#3a7a1a" opacity="0.28"/>

  <!-- Row at y=375 (even smaller) -->
  <circle cx="140" cy="375" r="1.4" fill="#3a7a1a" opacity="0.22"/>
  <circle cx="240" cy="375" r="1.5" fill="#4a8a2a" opacity="0.2"/>
  <circle cx="340" cy="375" r="1.4" fill="#3a7a1a" opacity="0.22"/>
  <circle cx="440" cy="375" r="1.3" fill="#5cb83a" opacity="0.18"/>
  <circle cx="540" cy="375" r="1.4" fill="#3a7a1a" opacity="0.22"/>
  <circle cx="640" cy="375" r="1.5" fill="#4a8a2a" opacity="0.2"/>
  <circle cx="740" cy="375" r="1.4" fill="#3a7a1a" opacity="0.22"/>
  <circle cx="840" cy="375" r="1.3" fill="#5cb83a" opacity="0.18"/>
  <circle cx="940" cy="375" r="1.4" fill="#3a7a1a" opacity="0.22"/>
  <circle cx="1040" cy="375" r="1.5" fill="#4a8a2a" opacity="0.2"/>
  <circle cx="1140" cy="375" r="1.4" fill="#3a7a1a" opacity="0.22"/>
  <circle cx="1240" cy="375" r="1.3" fill="#5cb83a" opacity="0.18"/>
  <circle cx="1340" cy="375" r="1.4" fill="#3a7a1a" opacity="0.22"/>

  <!-- ===== DATA SENSOR NETWORK — blue circuit traces & nodes across the field ===== -->
  <g filter="url(#dataGlow)">

    <!-- === SENSOR CLUSTER 1 — left third === -->
    <!-- Main horizontal trace -->
    <line x1="80"  y1="380" x2="280" y2="380" stroke="#0066CC" stroke-width="1.8" opacity="0.6"/>
    <circle cx="80"  cy="380" r="3.5" fill="#0066CC" opacity="0.7"/>
    <circle cx="180" cy="380" r="2.5" fill="#0066CC" opacity="0.5"/>
    <circle cx="280" cy="380" r="4"   fill="#0066CC" opacity="0.8"/>
    <!-- Vertical drop from node -->
    <line x1="280" y1="380" x2="280" y2="430" stroke="#0066CC" stroke-width="1.4" opacity="0.5"/>
    <circle cx="280" cy="430" r="2.8" fill="#0066CC" opacity="0.55"/>
    <!-- Branch right -->
    <line x1="280" y1="430" x2="340" y2="430" stroke="#0066CC" stroke-width="1.2" opacity="0.4"/>
    <circle cx="340" cy="430" r="2.2" fill="#0066CC" opacity="0.45"/>
    <!-- Vertical up from main -->
    <line x1="180" y1="380" x2="180" y2="340" stroke="#0066CC" stroke-width="1.3" opacity="0.45"/>
    <circle cx="180" cy="340" r="2.5" fill="#0066CC" opacity="0.5"/>

    <!-- === SENSOR CLUSTER 2 — center, with ascending trend === -->
    <!-- Horizontal base -->
    <line x1="580" y1="350" x2="780" y2="350" stroke="#0066CC" stroke-width="2" opacity="0.65"/>
    <circle cx="580" cy="350" r="3.8" fill="#0066CC" opacity="0.75"/>
    <circle cx="680" cy="350" r="2.8" fill="#0066CC" opacity="0.55"/>
    <circle cx="780" cy="350" r="4.2" fill="#0066CC" opacity="0.85"/>
    <!-- Ascending trend line upward from right node -->
    <line x1="780" y1="350" x2="810" y2="318" stroke="#0066CC" stroke-width="2" opacity="0.75"/>
    <circle cx="810" cy="318" r="3.5" fill="#0066CC" opacity="0.7"/>
    <line x1="810" y1="318" x2="845" y2="282" stroke="#0066CC" stroke-width="2.2" opacity="0.8"/>
    <circle cx="845" cy="282" r="4"   fill="#0066CC" opacity="0.8"/>
    <line x1="845" y1="282" x2="882" y2="248" stroke="#0066CC" stroke-width="2.2" opacity="0.82"/>
    <circle cx="882" cy="248" r="4.5" fill="#0066CC" opacity="0.88"/>
    <line x1="882" y1="248" x2="920" y2="215" stroke="#0066CC" stroke-width="2.4" opacity="0.85"/>
    <!-- Peak node with pulse ring -->
    <circle cx="920" cy="215" r="5.5" fill="#0066CC" opacity="0.95"/>
    <circle cx="920" cy="215" r="9.5" fill="none" stroke="#0066CC" stroke-width="1.5" opacity="0.3"/>
    <!-- Drop from left node -->
    <line x1="680" y1="350" x2="680" y2="405" stroke="#0066CC" stroke-width="1.3" opacity="0.42"/>
    <circle cx="680" cy="405" r="2.2" fill="#0066CC" opacity="0.45"/>

    <!-- === SENSOR CLUSTER 3 — right third === -->
    <line x1="1100" y1="370" x2="1340" y2="370" stroke="#0066CC" stroke-width="1.8" opacity="0.58"/>
    <circle cx="1100" cy="370" r="3.2" fill="#0066CC" opacity="0.65"/>
    <circle cx="1220" cy="370" r="2.5" fill="#0066CC" opacity="0.5"/>
    <circle cx="1340" cy="370" r="3.8" fill="#0066CC" opacity="0.72"/>
    <!-- Vertical up -->
    <line x1="1220" y1="370" x2="1220" y2="320" stroke="#0066CC" stroke-width="1.3" opacity="0.42"/>
    <circle cx="1220" cy="320" r="2.8" fill="#0066CC" opacity="0.5"/>
    <!-- Corner right from that -->
    <line x1="1220" y1="320" x2="1290" y2="320" stroke="#0066CC" stroke-width="1.2" opacity="0.38"/>
    <circle cx="1290" cy="320" r="2.2" fill="#0066CC" opacity="0.42"/>
    <!-- Drop from right node -->
    <line x1="1340" y1="370" x2="1340" y2="425" stroke="#0066CC" stroke-width="1.3" opacity="0.4"/>
    <circle cx="1340" cy="425" r="2.4" fill="#0066CC" opacity="0.45"/>

    <!-- === SCATTERED SENSOR DOTS across the field === -->
    <circle cx="45"  cy="420" r="1.8" fill="#0066CC" opacity="0.3"/>
    <circle cx="420" cy="395" r="1.6" fill="#0066CC" opacity="0.28"/>
    <circle cx="500" cy="445" r="1.8" fill="#0066CC" opacity="0.3"/>
    <circle cx="950" cy="380" r="1.5" fill="#0066CC" opacity="0.26"/>
    <circle cx="1020" cy="440" r="1.7" fill="#0066CC" opacity="0.28"/>
    <circle cx="1450" cy="410" r="1.6" fill="#0066CC" opacity="0.26"/>
    <circle cx="150" cy="460" r="1.5" fill="#0066CC" opacity="0.25"/>
    <circle cx="870" cy="455" r="1.6" fill="#0066CC" opacity="0.27"/>
    <circle cx="1400" cy="455" r="1.5" fill="#0066CC" opacity="0.24"/>
    <circle cx="460" cy="350" r="1.4" fill="#0066CC" opacity="0.22"/>
    <circle cx="1050" cy="310" r="1.3" fill="#0066CC" opacity="0.2"/>
  </g>

  <!-- ===== AMBIENT BLUE GLOW — behind the trend line peak, adds atmosphere ===== -->
  <circle cx="920" cy="215" r="60" fill="#0066CC" opacity="0.06" filter="url(#bigGlow)"/>

  <!-- ===== LOGO MARK — top left, the icon badge ===== -->
  <g transform="translate(100, 105) scale(0.18)">
    <!-- Badge -->
    <circle cx="200" cy="200" r="148" fill="none" stroke="#A0795A" stroke-width="2" opacity="0.3"/>
    <circle cx="200" cy="200" r="130" fill="#2D5016" opacity="0.95"/>
    <circle cx="200" cy="200" r="130" fill="none" stroke="#3d6b1e" stroke-width="1.8" opacity="0.5"/>
    <!-- Smooth leaf -->
    <g transform="translate(200, 198)">
      <path d="
        M 0,-80  C 38,-76  63,-46  65,-8
        C 67,21   50,50   25,67
        C 13,75   0,80    0,80
        C 0,80  -13,75  -25,67
        C -50,50  -67,21  -65,-8
        C -63,-46  -38,-76  0,-80 Z
      " fill="url(#leafGrad)"/>
      <line x1="0" y1="-75" x2="0" y2="75" stroke="#F5F5F5" stroke-width="2.2" stroke-linecap="round" opacity="0.48"/>
      <line x1="0" y1="-38" x2="-27" y2="-52" stroke="#F5F5F5" stroke-width="1.3" stroke-linecap="round" opacity="0.36"/>
      <line x1="0" y1="-8"  x2="-34" y2="-15" stroke="#F5F5F5" stroke-width="1.3" stroke-linecap="round" opacity="0.36"/>
      <line x1="0" y1="21"  x2="-32" y2="15"  stroke="#F5F5F5" stroke-width="1.3" stroke-linecap="round" opacity="0.36"/>
      <line x1="0" y1="46"  x2="-22" y2="42"  stroke="#F5F5F5" stroke-width="1.3" stroke-linecap="round" opacity="0.36"/>
      <line x1="0" y1="-38" x2="27" y2="-52" stroke="#F5F5F5" stroke-width="1.3" stroke-linecap="round" opacity="0.36"/>
      <line x1="0" y1="-8"  x2="34" y2="-15" stroke="#F5F5F5" stroke-width="1.3" stroke-linecap="round" opacity="0.36"/>
      <line x1="0" y1="21"  x2="32" y2="15"  stroke="#F5F5F5" stroke-width="1.3" stroke-linecap="round" opacity="0.36"/>
      <line x1="0" y1="46"  x2="22" y2="42"  stroke="#F5F5F5" stroke-width="1.3" stroke-linecap="round" opacity="0.36"/>
    </g>
    <!-- Blue traces inside (simplified for small size) -->
    <line x1="108" y1="182" x2="178" y2="182" stroke="#0066CC" stroke-width="1.7" opacity="0.75"/>
    <circle cx="178" cy="182" r="3.8" fill="#0066CC" opacity="0.9"/>
    <circle cx="108" cy="182" r="2.6" fill="#0066CC" opacity="0.6"/>
    <circle cx="222" cy="192" r="3.8" fill="#0066CC" opacity="0.9"/>
    <line x1="222" y1="192" x2="242" y2="176" stroke="#0066CC" stroke-width="1.8" opacity="0.8"/>
    <circle cx="242" cy="176" r="3.4" fill="#0066CC" opacity="0.85"/>
    <line x1="242" y1="176" x2="264" y2="158" stroke="#0066CC" stroke-width="1.8" opacity="0.82"/>
    <circle cx="264" cy="158" r="3.8" fill="#0066CC" opacity="0.88"/>
    <line x1="264" y1="158" x2="284" y2="139" stroke="#0066CC" stroke-width="2" opacity="0.85"/>
    <circle cx="284" cy="139" r="4.6" fill="#0066CC" opacity="0.95"/>
    <!-- Soil arc -->
    <path d="M 158,262 Q 200,273 242,262" fill="none" stroke="#A0795A" stroke-width="2.1" stroke-linecap="round" opacity="0.42"/>
  </g>

  <!-- ===== WORDMARK — next to logo ===== -->
  <text x="195" y="88"
        font-family="'Helvetica Neue', 'Helvetica', sans-serif"
        font-size="52" font-weight="700" letter-spacing="10"
        text-anchor="start" fill="#4CAF50">FARM</text>
  <text x="197" y="118"
        font-family="'Helvetica Neue', 'Helvetica', sans-serif"
        font-size="20" font-weight="300" letter-spacing="12"
        text-anchor="start" fill="#A0795A">PROTOCOLS</text>

  <!-- ===== TAGLINE — right side, clean and readable ===== -->
  <text x="1380" y="72"
        font-family="'Helvetica Neue', 'Helvetica', sans-serif"
        font-size="13" font-weight="300" letter-spacing="3"
        text-anchor="end" fill="#F5F5F5" opacity="0.5">OPEN DATA · ONE SEASON</text>
  <text x="1380" y="95"
        font-family="'Helvetica Neue', 'Helvetica', sans-serif"
        font-size="13" font-weight="300" letter-spacing="3"
        text-anchor="end" fill="#F5F5F5" opacity="0.5">HUDSON VALLEY · 2026</text>

</svg>
